<svg width="20" height="261" viewBox="0 0 20 261" fill="none" xmlns="http://www.w3.org/2000/svg">
<path d="M13.6518 258.534L13.6518 254.142L14.9838 254.142L14.9838 260.172L2.43776 260.172L2.43776 258.534L13.6518 258.534ZM9.67376 243.402C9.98576 243.402 10.3158 243.42 10.6638 243.456L10.6638 251.34C11.6358 251.28 12.3978 250.95 12.9498 250.35C13.4898 249.738 13.7598 249 13.7598 248.136C13.7598 247.428 13.5978 246.84 13.2738 246.372C12.9378 245.892 12.4938 245.556 11.9418 245.364L11.9418 243.6C12.8898 243.864 13.6638 244.392 14.2638 245.184C14.8518 245.976 15.1458 246.96 15.1458 248.136C15.1458 249.072 14.9358 249.912 14.5158 250.656C14.0958 251.388 13.5018 251.964 12.7338 252.384C11.9538 252.804 11.0538 253.014 10.0338 253.014C9.01376 253.014 8.11976 252.81 7.35176 252.402C6.58376 251.994 5.99576 251.424 5.58776 250.692C5.16776 249.948 4.95776 249.096 4.95776 248.136C4.95776 247.2 5.16176 246.372 5.56976 245.652C5.97776 244.932 6.54176 244.38 7.26176 243.996C7.96976 243.6 8.77376 243.402 9.67376 243.402ZM9.33176 245.094C8.70776 245.094 8.17376 245.232 7.72976 245.508C7.27376 245.784 6.93176 246.162 6.70376 246.642C6.46376 247.11 6.34376 247.632 6.34376 248.208C6.34376 249.036 6.60776 249.744 7.13576 250.332C7.66376 250.908 8.39576 251.238 9.33176 251.322L9.33176 245.094ZM6.46976 239.242L12.2838 239.242C12.7638 239.242 13.1058 239.14 13.3098 238.936C13.5018 238.732 13.5978 238.378 13.5978 237.874L13.5978 236.668L14.9838 236.668L14.9838 238.144C14.9838 239.056 14.7738 239.74 14.3538 240.196C13.9338 240.652 13.2438 240.88 12.2838 240.88L6.46976 240.88L6.46976 242.158L5.11976 242.158L5.11976 240.88L2.63576 240.88L2.63576 239.242L5.11976 239.242L5.11976 236.668L6.46976 236.668L6.46976 239.242ZM3.15776 231.929L4.38176 231.929L2.32976 235.763L0.907762 235.763L3.15776 231.929ZM15.1458 226.568C15.1458 227.324 15.0198 228.002 14.7678 228.602C14.5038 229.202 14.1438 229.676 13.6878 230.024C13.2198 230.372 12.6858 230.564 12.0858 230.6L12.0858 228.908C12.5778 228.86 12.9798 228.632 13.2918 228.224C13.6038 227.804 13.7598 227.258 13.7598 226.586C13.7598 225.962 13.6218 225.47 13.3458 225.11C13.0698 224.75 12.7218 224.57 12.3018 224.57C11.8698 224.57 11.5518 224.762 11.3478 225.146C11.1318 225.53 10.9218 226.124 10.7178 226.928C10.5258 227.66 10.3338 228.26 10.1418 228.728C9.93776 229.184 9.64376 229.58 9.25976 229.916C8.86376 230.24 8.34776 230.402 7.71176 230.402C7.20776 230.402 6.74576 230.252 6.32576 229.952C5.90576 229.652 5.57576 229.226 5.33576 228.674C5.08376 228.122 4.95776 227.492 4.95776 226.784C4.95776 225.692 5.23376 224.81 5.78576 224.138C6.33776 223.466 7.09376 223.106 8.05376 223.058L8.05376 224.696C7.53776 224.732 7.12376 224.942 6.81176 225.326C6.49976 225.698 6.34376 226.202 6.34376 226.838C6.34376 227.426 6.46976 227.894 6.72176 228.242C6.97376 228.59 7.30376 228.764 7.71176 228.764C8.03576 228.764 8.30576 228.662 8.52176 228.458C8.72576 228.242 8.89376 227.978 9.02576 227.666C9.14576 227.342 9.28376 226.898 9.43976 226.334C9.63176 225.626 9.82376 225.05 10.0158 224.606C10.1958 224.162 10.4718 223.784 10.8438 223.472C11.2158 223.148 11.7018 222.98 12.3018 222.968C12.8418 222.968 13.3278 223.118 13.7598 223.418C14.1918 223.718 14.5338 224.144 14.7858 224.696C15.0258 225.236 15.1458 225.86 15.1458 226.568ZM8.52176 209.575C8.59376 209.119 8.77976 208.705 9.07976 208.333C9.37976 207.949 9.75176 207.649 10.1958 207.433C10.6398 207.205 11.1138 207.091 11.6178 207.091C12.2538 207.091 12.8298 207.253 13.3458 207.577C13.8498 207.901 14.2518 208.375 14.5518 208.999C14.8398 209.611 14.9838 210.337 14.9838 211.177L14.9838 215.857L2.43776 215.857L2.43776 211.357C2.43776 210.505 2.58176 209.779 2.86976 209.179C3.14576 208.579 3.52376 208.129 4.00376 207.829C4.48376 207.529 5.02376 207.379 5.62376 207.379C6.36776 207.379 6.98576 207.583 7.47776 207.991C7.95776 208.387 8.30576 208.915 8.52176 209.575ZM7.85576 214.219L7.85576 211.465C7.85576 210.697 7.67576 210.103 7.31576 209.683C6.95576 209.263 6.45776 209.053 5.82176 209.053C5.18576 209.053 4.68776 209.263 4.32776 209.683C3.96776 210.103 3.78776 210.709 3.78776 211.501L3.78776 214.219L7.85576 214.219ZM13.6338 211.321C13.6338 210.505 13.4418 209.869 13.0578 209.413C12.6738 208.957 12.1398 208.729 11.4558 208.729C10.7598 208.729 10.2138 208.969 9.81776 209.449C9.40976 209.929 9.20576 210.571 9.20576 211.375L9.20576 214.219L13.6338 214.219L13.6338 211.321ZM9.67376 195.818C9.98576 195.818 10.3158 195.836 10.6638 195.872L10.6638 203.756C11.6358 203.696 12.3978 203.366 12.9498 202.766C13.4898 202.154 13.7598 201.416 13.7598 200.552C13.7598 199.844 13.5978 199.256 13.2738 198.788C12.9378 198.308 12.4938 197.972 11.9418 197.78L11.9418 196.016C12.8898 196.28 13.6638 196.808 14.2638 197.6C14.8518 198.392 15.1458 199.376 15.1458 200.552C15.1458 201.488 14.9358 202.328 14.5158 203.072C14.0958 203.804 13.5018 204.38 12.7338 204.8C11.9538 205.22 11.0538 205.43 10.0338 205.43C9.01376 205.43 8.11976 205.226 7.35176 204.818C6.58376 204.41 5.99576 203.84 5.58776 203.108C5.16776 202.364 4.95776 201.512 4.95776 200.552C4.95776 199.616 5.16176 198.788 5.56976 198.068C5.97776 197.348 6.54176 196.796 7.26176 196.412C7.96976 196.016 8.77376 195.818 9.67376 195.818ZM9.33176 197.51C8.70776 197.51 8.17376 197.648 7.72976 197.924C7.27376 198.2 6.93176 198.578 6.70376 199.058C6.46376 199.526 6.34376 200.048 6.34376 200.624C6.34376 201.452 6.60776 202.16 7.13576 202.748C7.66376 203.324 8.39576 203.654 9.33176 203.738L9.33176 197.51ZM2.43776 181.135L3.76976 181.135L3.76976 184.555L14.9838 184.555L14.9838 186.193L3.76976 186.193L3.76976 189.631L2.43776 189.631L2.43776 181.135ZM9.67376 170.119C9.98576 170.119 10.3158 170.137 10.6638 170.173L10.6638 178.057C11.6358 177.997 12.3978 177.667 12.9498 177.067C13.4898 176.455 13.7598 175.717 13.7598 174.853C13.7598 174.145 13.5978 173.557 13.2738 173.089C12.9378 172.609 12.4938 172.273 11.9418 172.081L11.9418 170.317C12.8898 170.581 13.6638 171.109 14.2638 171.901C14.8518 172.693 15.1458 173.677 15.1458 174.853C15.1458 175.789 14.9358 176.629 14.5158 177.373C14.0958 178.105 13.5018 178.681 12.7338 179.101C11.9538 179.521 11.0538 179.731 10.0338 179.731C9.01376 179.731 8.11976 179.527 7.35176 179.119C6.58376 178.711 5.99576 178.141 5.58776 177.409C5.16776 176.665 4.95776 175.813 4.95776 174.853C4.95776 173.917 5.16176 173.089 5.56976 172.369C5.97776 171.649 6.54176 171.097 7.26176 170.713C7.96976 170.317 8.77376 170.119 9.67376 170.119ZM9.33176 171.811C8.70776 171.811 8.17376 171.949 7.72976 172.225C7.27376 172.501 6.93176 172.879 6.70376 173.359C6.46376 173.827 6.34376 174.349 6.34376 174.925C6.34376 175.753 6.60776 176.461 7.13576 177.049C7.66376 177.625 8.39576 177.955 9.33176 178.039L9.33176 171.811ZM10.0338 168.569C9.01376 168.569 8.12576 168.365 7.36976 167.957C6.60176 167.549 6.00776 166.985 5.58776 166.265C5.16776 165.533 4.95776 164.699 4.95776 163.763C4.95776 162.551 5.25176 161.555 5.83976 160.775C6.42776 159.983 7.24376 159.461 8.28776 159.209L8.28776 160.973C7.68776 161.141 7.21376 161.471 6.86576 161.963C6.51776 162.443 6.34376 163.043 6.34376 163.763C6.34376 164.699 6.66776 165.455 7.31576 166.031C7.95176 166.607 8.85776 166.895 10.0338 166.895C11.2218 166.895 12.1398 166.607 12.7878 166.031C13.4358 165.455 13.7598 164.699 13.7598 163.763C13.7598 163.043 13.5918 162.443 13.2558 161.963C12.9198 161.483 12.4398 161.153 11.8158 160.973L11.8158 159.209C12.8238 159.473 13.6338 160.001 14.2458 160.793C14.8458 161.585 15.1458 162.575 15.1458 163.763C15.1458 164.699 14.9358 165.533 14.5158 166.265C14.0958 166.985 13.5018 167.549 12.7338 167.957C11.9658 168.365 11.0658 168.569 10.0338 168.569ZM4.93976 152.127C4.93976 151.383 5.10176 150.711 5.42576 150.111C5.73776 149.511 6.21176 149.043 6.84776 148.707C7.48376 148.359 8.25776 148.185 9.16976 148.185L14.9838 148.185L14.9838 149.805L9.40376 149.805C8.41976 149.805 7.66976 150.051 7.15376 150.543C6.62576 151.035 6.36176 151.707 6.36176 152.559C6.36176 153.423 6.63176 154.113 7.17176 154.629C7.71176 155.133 8.49776 155.385 9.52976 155.385L14.9838 155.385L14.9838 157.023L1.66376 157.023L1.66376 155.385L6.52376 155.385C6.01976 155.061 5.62976 154.617 5.35376 154.053C5.07776 153.477 4.93976 152.835 4.93976 152.127ZM4.93976 140.704C4.93976 139.504 5.30576 138.532 6.03776 137.788C6.75776 137.044 7.80176 136.672 9.16976 136.672L14.9838 136.672L14.9838 138.292L9.40376 138.292C8.41976 138.292 7.66976 138.538 7.15376 139.03C6.62576 139.522 6.36176 140.194 6.36176 141.046C6.36176 141.91 6.63176 142.6 7.17176 143.116C7.71176 143.62 8.49776 143.872 9.52976 143.872L14.9838 143.872L14.9838 145.51L5.11976 145.51L5.11976 143.872L6.52376 143.872C6.01976 143.548 5.62976 143.11 5.35376 142.558C5.07776 141.994 4.93976 141.376 4.93976 140.704ZM15.1458 129.694C15.1458 130.618 14.9358 131.458 14.5158 132.214C14.0958 132.958 13.5018 133.546 12.7338 133.978C11.9538 134.398 11.0538 134.608 10.0338 134.608C9.02576 134.608 8.13776 134.392 7.36976 133.96C6.58976 133.516 5.99576 132.916 5.58776 132.16C5.16776 131.404 4.95776 130.558 4.95776 129.622C4.95776 128.686 5.16776 127.84 5.58776 127.084C5.99576 126.328 6.58376 125.734 7.35176 125.302C8.11976 124.858 9.01376 124.636 10.0338 124.636C11.0538 124.636 11.9538 124.864 12.7338 125.32C13.5018 125.764 14.0958 126.37 14.5158 127.138C14.9358 127.906 15.1458 128.758 15.1458 129.694ZM13.7058 129.694C13.7058 129.106 13.5678 128.554 13.2918 128.038C13.0158 127.522 12.6018 127.108 12.0498 126.796C11.4978 126.472 10.8258 126.31 10.0338 126.31C9.24176 126.31 8.56976 126.466 8.01776 126.778C7.46576 127.09 7.05776 127.498 6.79376 128.002C6.51776 128.506 6.37976 129.052 6.37976 129.64C6.37976 130.24 6.51776 130.792 6.79376 131.296C7.05776 131.788 7.46576 132.184 8.01776 132.484C8.56976 132.784 9.24176 132.934 10.0338 132.934C10.8378 132.934 11.5158 132.79 12.0678 132.502C12.6198 132.202 13.0338 131.806 13.3098 131.314C13.5738 130.822 13.7058 130.282 13.7058 129.694ZM1.66376 120.844L14.9838 120.844L14.9838 122.482L1.66376 122.482L1.66376 120.844ZM15.1458 113.75C15.1458 114.674 14.9358 115.514 14.5158 116.27C14.0958 117.014 13.5018 117.602 12.7338 118.034C11.9538 118.454 11.0538 118.664 10.0338 118.664C9.02576 118.664 8.13776 118.448 7.36976 118.016C6.58976 117.572 5.99576 116.972 5.58776 116.216C5.16776 115.46 4.95776 114.614 4.95776 113.678C4.95776 112.742 5.16776 111.896 5.58776 111.14C5.99576 110.384 6.58376 109.79 7.35176 109.358C8.11976 108.914 9.01376 108.692 10.0338 108.692C11.0538 108.692 11.9538 108.92 12.7338 109.376C13.5018 109.82 14.0958 110.426 14.5158 111.194C14.9358 111.962 15.1458 112.814 15.1458 113.75ZM13.7058 113.75C13.7058 113.162 13.5678 112.61 13.2918 112.094C13.0158 111.578 12.6018 111.164 12.0498 110.852C11.4978 110.528 10.8258 110.366 10.0338 110.366C9.24176 110.366 8.56976 110.522 8.01776 110.834C7.46576 111.146 7.05776 111.554 6.79376 112.058C6.51776 112.562 6.37976 113.108 6.37976 113.696C6.37976 114.296 6.51776 114.848 6.79376 115.352C7.05776 115.844 7.46576 116.24 8.01776 116.54C8.56976 116.84 9.24176 116.99 10.0338 116.99C10.8378 116.99 11.5158 116.846 12.0678 116.558C12.6198 116.258 13.0338 115.862 13.3098 115.37C13.5738 114.878 13.7058 114.338 13.7058 113.75ZM4.95776 102.471C4.95776 101.619 5.14376 100.875 5.51576 100.239C5.88776 99.5908 6.35576 99.1108 6.91976 98.7988L5.11976 98.7988L5.11976 97.1428L15.1998 97.1428C16.0998 97.1428 16.8978 97.3348 17.5938 97.7188C18.3018 98.1028 18.8538 98.6548 19.2498 99.3748C19.6458 100.083 19.8438 100.911 19.8438 101.859C19.8438 103.155 19.5378 104.235 18.9258 105.099C18.3138 105.963 17.4798 106.473 16.4238 106.629L16.4238 105.009C17.0238 104.829 17.5038 104.457 17.8638 103.893C18.2358 103.329 18.4218 102.651 18.4218 101.859C18.4218 100.959 18.1398 100.227 17.5758 99.6628C17.0118 99.0868 16.2198 98.7988 15.1998 98.7988L13.1298 98.7988C13.7058 99.1228 14.1858 99.6028 14.5698 100.239C14.9538 100.875 15.1458 101.619 15.1458 102.471C15.1458 103.347 14.9298 104.145 14.4978 104.865C14.0658 105.573 13.4598 106.131 12.6798 106.539C11.8998 106.947 11.0118 107.151 10.0158 107.151C9.00776 107.151 8.12576 106.947 7.36976 106.539C6.60176 106.131 6.00776 105.573 5.58776 104.865C5.16776 104.145 4.95776 103.347 4.95776 102.471ZM10.0338 98.7988C9.28976 98.7988 8.64176 98.9488 8.08976 99.2488C7.53776 99.5488 7.11776 99.9568 6.82976 100.473C6.52976 100.977 6.37976 101.535 6.37976 102.147C6.37976 102.759 6.52376 103.317 6.81176 103.821C7.09976 104.325 7.51976 104.727 8.07176 105.027C8.62376 105.327 9.27176 105.477 10.0158 105.477C10.7718 105.477 11.4318 105.327 11.9958 105.027C12.5478 104.727 12.9738 104.325 13.2738 103.821C13.5618 103.317 13.7058 102.759 13.7058 102.147C13.7058 101.535 13.5618 100.977 13.2738 100.473C12.9738 99.9568 12.5478 99.5488 11.9958 99.2488C11.4318 98.9488 10.7778 98.7988 10.0338 98.7988ZM5.11976 85.8787L19.6278 91.8187L19.6278 93.5107L14.8758 91.5667L5.11976 95.5447L5.11976 93.7267L13.1118 90.6307L5.11976 87.5707L5.11976 85.8787ZM2.43776 71.7113L3.76976 71.7113L3.76976 75.1313L14.9838 75.1313L14.9838 76.7693L3.76976 76.7693L3.76976 80.2073L2.43776 80.2073L2.43776 71.7113ZM15.1458 65.3931C15.1458 66.3171 14.9358 67.1571 14.5158 67.9131C14.0958 68.6571 13.5018 69.2451 12.7338 69.6771C11.9538 70.0971 11.0538 70.3071 10.0338 70.3071C9.02576 70.3071 8.13776 70.0911 7.36976 69.6591C6.58976 69.2151 5.99576 68.6151 5.58776 67.8591C5.16776 67.1031 4.95776 66.2571 4.95776 65.3211C4.95776 64.3851 5.16776 63.5391 5.58776 62.7831C5.99576 62.0271 6.58376 61.4331 7.35176 61.0011C8.11976 60.5571 9.01376 60.3351 10.0338 60.3351C11.0538 60.3351 11.9538 60.5631 12.7338 61.0191C13.5018 61.4631 14.0958 62.0691 14.5158 62.8371C14.9358 63.6051 15.1458 64.4571 15.1458 65.3931ZM13.7058 65.3931C13.7058 64.8051 13.5678 64.2531 13.2918 63.7371C13.0158 63.2211 12.6018 62.8071 12.0498 62.4951C11.4978 62.1711 10.8258 62.0091 10.0338 62.0091C9.24176 62.0091 8.56976 62.1651 8.01776 62.4771C7.46576 62.7891 7.05776 63.1971 6.79376 63.7011C6.51776 64.2051 6.37976 64.7511 6.37976 65.3391C6.37976 65.9391 6.51776 66.4911 6.79376 66.9951C7.05776 67.4871 7.46576 67.8831 8.01776 68.1831C8.56976 68.4831 9.24176 68.6331 10.0338 68.6331C10.8378 68.6331 11.5158 68.4891 12.0678 68.2011C12.6198 67.9011 13.0338 67.5051 13.3098 67.0131C13.5738 66.5211 13.7058 65.9811 13.7058 65.3931ZM4.95775 54.1134C4.95775 53.2614 5.14375 52.5174 5.51576 51.8814C5.88775 51.2334 6.35575 50.7534 6.91976 50.4414L5.11975 50.4414L5.11975 48.7854L15.1998 48.7854C16.0998 48.7854 16.8978 48.9774 17.5938 49.3614C18.3018 49.7454 18.8538 50.2974 19.2498 51.0174C19.6458 51.7254 19.8438 52.5534 19.8438 53.5014C19.8438 54.7974 19.5378 55.8774 18.9258 56.7414C18.3138 57.6054 17.4798 58.1154 16.4238 58.2714L16.4238 56.6514C17.0238 56.4714 17.5038 56.0994 17.8638 55.5354C18.2358 54.9714 18.4218 54.2934 18.4218 53.5014C18.4218 52.6014 18.1398 51.8694 17.5758 51.3054C17.0118 50.7294 16.2198 50.4414 15.1998 50.4414L13.1298 50.4414C13.7058 50.7654 14.1858 51.2454 14.5698 51.8814C14.9538 52.5174 15.1458 53.2614 15.1458 54.1134C15.1458 54.9894 14.9298 55.7874 14.4978 56.5074C14.0658 57.2154 13.4598 57.7734 12.6798 58.1814C11.8998 58.5894 11.0118 58.7934 10.0158 58.7934C9.00776 58.7934 8.12576 58.5894 7.36976 58.1814C6.60176 57.7734 6.00776 57.2154 5.58776 56.5074C5.16776 55.7874 4.95775 54.9894 4.95775 54.1134ZM10.0338 50.4414C9.28976 50.4414 8.64176 50.5914 8.08976 50.8914C7.53776 51.1914 7.11776 51.5994 6.82976 52.1154C6.52976 52.6194 6.37976 53.1774 6.37976 53.7894C6.37976 54.4014 6.52376 54.9594 6.81176 55.4634C7.09976 55.9674 7.51976 56.3694 8.07176 56.6694C8.62376 56.9694 9.27176 57.1194 10.0158 57.1194C10.7718 57.1194 11.4318 56.9694 11.9958 56.6694C12.5478 56.3694 12.9738 55.9674 13.2738 55.4634C13.5618 54.9594 13.7058 54.4014 13.7058 53.7894C13.7058 53.1774 13.5618 52.6194 13.2738 52.1154C12.9738 51.5994 12.5478 51.1914 11.9958 50.8914C11.4318 50.5914 10.7778 50.4414 10.0338 50.4414ZM9.67375 37.0173C9.98575 37.0173 10.3158 37.0353 10.6638 37.0713L10.6638 44.9553C11.6358 44.8953 12.3978 44.5653 12.9498 43.9653C13.4898 43.3533 13.7598 42.6153 13.7598 41.7513C13.7598 41.0433 13.5978 40.4553 13.2738 39.9873C12.9378 39.5073 12.4938 39.1713 11.9418 38.9793L11.9418 37.2153C12.8898 37.4793 13.6638 38.0073 14.2638 38.7993C14.8518 39.5913 15.1458 40.5753 15.1458 41.7513C15.1458 42.6873 14.9358 43.5273 14.5158 44.2713C14.0958 45.0033 13.5018 45.5793 12.7338 45.9993C11.9538 46.4193 11.0538 46.6293 10.0338 46.6293C9.01376 46.6293 8.11975 46.4253 7.35175 46.0173C6.58375 45.6093 5.99575 45.0393 5.58775 44.3073C5.16775 43.5633 4.95775 42.7113 4.95775 41.7513C4.95775 40.8153 5.16175 39.9873 5.56975 39.2673C5.97775 38.5473 6.54175 37.9953 7.26175 37.6113C7.96975 37.2153 8.77375 37.0173 9.67375 37.0173ZM9.33175 38.7093C8.70775 38.7093 8.17375 38.8473 7.72975 39.1233C7.27375 39.3993 6.93175 39.7773 6.70375 40.2573C6.46375 40.7253 6.34375 41.2473 6.34375 41.8233C6.34375 42.6513 6.60775 43.3593 7.13575 43.9473C7.66375 44.5233 8.39575 44.8533 9.33175 44.9373L9.33175 38.7093ZM6.46975 32.8572L12.2838 32.8572C12.7638 32.8572 13.1058 32.7552 13.3098 32.5512C13.5018 32.3472 13.5978 31.9932 13.5978 31.4892L13.5978 30.2832L14.9838 30.2832L14.9838 31.7592C14.9838 32.6712 14.7738 33.3552 14.3538 33.8112C13.9338 34.2672 13.2438 34.4952 12.2838 34.4952L6.46975 34.4952L6.46975 35.7732L5.11975 35.7732L5.11975 34.4952L2.63575 34.4952L2.63575 32.8572L5.11975 32.8572L5.11975 30.2832L6.46975 30.2832L6.46975 32.8572ZM4.93975 23.4026C4.93975 22.6586 5.10175 21.9866 5.42575 21.3866C5.73775 20.7866 6.21175 20.3186 6.84775 19.9826C7.48375 19.6346 8.25775 19.4606 9.16975 19.4606L14.9838 19.4606L14.9838 21.0806L9.40375 21.0806C8.41975 21.0806 7.66975 21.3266 7.15375 21.8186C6.62575 22.3106 6.36175 22.9826 6.36175 23.8346C6.36175 24.6986 6.63175 25.3886 7.17175 25.9046C7.71175 26.4086 8.49775 26.6606 9.52975 26.6606L14.9838 26.6606L14.9838 28.2986L1.66375 28.2986L1.66375 26.6606L6.52375 26.6606C6.01975 26.3366 5.62975 25.8926 5.35375 25.3286C5.07775 24.7526 4.93975 24.1106 4.93975 23.4026ZM9.67375 7.7849C9.98575 7.7849 10.3158 7.8029 10.6638 7.8389L10.6638 15.7229C11.6358 15.6629 12.3978 15.3329 12.9498 14.7329C13.4898 14.1209 13.7598 13.3829 13.7598 12.5189C13.7598 11.8109 13.5978 11.2229 13.2738 10.7549C12.9378 10.2749 12.4938 9.9389 11.9418 9.7469L11.9418 7.9829C12.8898 8.2469 13.6638 8.7749 14.2638 9.5669C14.8518 10.3589 15.1458 11.3429 15.1458 12.5189C15.1458 13.4549 14.9358 14.2949 14.5158 15.0389C14.0958 15.7709 13.5018 16.3469 12.7338 16.7669C11.9538 17.1869 11.0538 17.3969 10.0338 17.3969C9.01375 17.3969 8.11975 17.1929 7.35175 16.7849C6.58375 16.3769 5.99575 15.8069 5.58775 15.0749C5.16775 14.3309 4.95775 13.4789 4.95775 12.5189C4.95775 11.5829 5.16175 10.7549 5.56975 10.0349C5.97775 9.3149 6.54175 8.7629 7.26175 8.3789C7.96975 7.9829 8.77375 7.7849 9.67375 7.7849ZM9.33175 9.4769C8.70775 9.4769 8.17375 9.6149 7.72975 9.8909C7.27375 10.1669 6.93175 10.5449 6.70375 11.0249C6.46375 11.4929 6.34375 12.0149 6.34375 12.5909C6.34375 13.4189 6.60775 14.1269 7.13575 14.7149C7.66375 15.2909 8.39575 15.6209 9.33175 15.7049L9.33175 9.4769ZM6.72175 3.98479C6.15775 3.69679 5.71975 3.28879 5.40775 2.76079C5.09575 2.22079 4.93975 1.56679 4.93975 0.798788L6.63175 0.798788L6.63175 1.23079C6.63175 3.06679 7.62775 3.98479 9.61975 3.98479L14.9838 3.98479L14.9838 5.62279L5.11975 5.62279L5.11975 3.98479L6.72175 3.98479Z" fill="white"/>
</svg>
