<svg width="78" height="88" viewBox="0 0 78 88" fill="none" xmlns="http://www.w3.org/2000/svg">
<path d="M27.9887 24.4317H0.0317383V81.8196C0.0317383 84.9511 2.43649 87.4983 5.40411 87.4983H60.3511C63.3188 87.4983 65.7235 84.9594 65.7235 81.8278V62.2556H35.1958C31.2154 62.2556 27.9887 59.0289 27.9887 55.0485V24.4317Z" fill="url(#paint0_linear_1_14)"/>
<path d="M27.8569 10.5725L27.8962 1.09291C27.8982 1.06712 27.8905 1.04141 27.8737 1.01799C27.8569 0.994577 27.8316 0.974155 27.7999 0.95849C27.7682 0.942825 27.7311 0.932387 27.6918 0.928077C27.6526 0.923766 27.6122 0.925712 27.5744 0.933747C27.3287 0.994228 27.083 1.06744 27.083 1.06744C21.9187 2.52535 16.5333 5.20562 13.1281 10.5741L27.8569 10.5725Z" fill="#6DD2E1"/>
<path fill-rule="evenodd" clip-rule="evenodd" d="M54.8886 23.5302H0.0317383L8.92613 13.5102C9.52865 12.8481 10.2505 12.3203 11.049 11.9581C11.8476 11.5958 12.7066 11.4064 13.5755 11.401H69.4992L69.4992 11.4011H71.2132C72.5746 11.4011 73.8682 11.9956 74.7548 13.0287C74.8344 13.1213 74.829 13.2596 74.7426 13.3458L64.5367 23.5303H54.8884L54.8886 23.5302Z" fill="url(#paint1_linear_1_14)"/>
<path fill-rule="evenodd" clip-rule="evenodd" d="M65.6392 23.8059L75.3932 14.0519C75.487 13.958 75.6393 13.9577 75.7317 14.0529C76.5321 14.878 77.4927 16.0872 77.4927 18.017L77.4927 26.063L77.4927 48.4171C77.4938 49.1608 77.2958 49.8922 76.9182 50.5405H76.9153L65.6392 62.399V26.063V25.3654V23.8059Z" fill="url(#paint2_linear_1_14)"/>
<defs>
<linearGradient id="paint0_linear_1_14" x1="18.6391" y1="87.4846" x2="18.3634" y2="23.5304" gradientUnits="userSpaceOnUse">
<stop stop-color="#002637"/>
<stop offset="1" stop-color="#2F6F8C"/>
</linearGradient>
<linearGradient id="paint1_linear_1_14" x1="4.57349" y1="17.3308" x2="70.3601" y2="17.3309" gradientUnits="userSpaceOnUse">
<stop stop-color="#009CC3"/>
<stop offset="1" stop-color="#2CC1E7"/>
</linearGradient>
<linearGradient id="paint2_linear_1_14" x1="71.5659" y1="57.0484" x2="71.5659" y2="17.4822" gradientUnits="userSpaceOnUse">
<stop stop-color="#D25B10"/>
<stop offset="1" stop-color="#F28A48"/>
</linearGradient>
</defs>
</svg>
